G04 #@! TF.GenerationSoftware,KiCad,Pcbnew,5.0.0*
G04 #@! TF.CreationDate,2018-10-14T14:04:32-03:00*
G04 #@! TF.ProjectId,ShieldIoT-IFSP,536869656C64496F542D494653502E6B,3.4*
G04 #@! TF.SameCoordinates,Original*
G04 #@! TF.FileFunction,Copper,L2,Bot,Signal*
G04 #@! TF.FilePolarity,Positive*
%FSLAX46Y46*%
G04 Gerber Fmt 4.6, Leading zero omitted, Abs format (unit mm)*
G04 Created by KiCad (PCBNEW 5.0.0) date Sun Oct 14 14:04:32 2018*
%MOMM*%
%LPD*%
G01*
G04 APERTURE LIST*
G04 #@! TA.AperFunction,ComponentPad*
%ADD10O,3.000000X2.000000*%
G04 #@! TD*
G04 #@! TA.AperFunction,ComponentPad*
%ADD11O,4.000000X1.500000*%
G04 #@! TD*
G04 #@! TA.AperFunction,ComponentPad*
%ADD12O,2.000000X1.500000*%
G04 #@! TD*
G04 #@! TA.AperFunction,ComponentPad*
%ADD13C,2.000000*%
G04 #@! TD*
G04 #@! TA.AperFunction,ComponentPad*
%ADD14O,1.500000X3.000000*%
G04 #@! TD*
G04 #@! TA.AperFunction,ComponentPad*
%ADD15O,4.000000X4.000000*%
G04 #@! TD*
G04 #@! TA.AperFunction,ComponentPad*
%ADD16O,2.524000X1.524000*%
G04 #@! TD*
G04 #@! TA.AperFunction,ComponentPad*
%ADD17O,3.000000X1.500000*%
G04 #@! TD*
G04 #@! TA.AperFunction,ComponentPad*
%ADD18O,2.999740X4.000500*%
G04 #@! TD*
G04 #@! TA.AperFunction,ComponentPad*
%ADD19R,1.800000X1.800000*%
G04 #@! TD*
G04 #@! TA.AperFunction,ComponentPad*
%ADD20O,1.500000X4.000000*%
G04 #@! TD*
G04 #@! TA.AperFunction,ComponentPad*
%ADD21O,2.000000X3.000000*%
G04 #@! TD*
G04 #@! TA.AperFunction,Conductor*
%ADD22C,1.500000*%
G04 #@! TD*
G04 #@! TA.AperFunction,Conductor*
%ADD23C,0.700000*%
G04 #@! TD*
G04 #@! TA.AperFunction,Conductor*
%ADD24C,0.500000*%
G04 #@! TD*
G04 #@! TA.AperFunction,Conductor*
%ADD25C,1.000000*%
G04 #@! TD*
G04 #@! TA.AperFunction,Conductor*
%ADD26C,2.000000*%
G04 #@! TD*
G04 APERTURE END LIST*
D10*
G04 #@! TO.P,SW4,1*
G04 #@! TO.N,+3V3*
X80250000Y-56250000D03*
G04 #@! TO.P,SW4,2*
G04 #@! TO.N,Net-(R1-Pad1)*
X86750000Y-56250000D03*
G04 #@! TD*
D11*
G04 #@! TO.P,IC1,3V3*
G04 #@! TO.N,+3V3*
X34870000Y-21040000D03*
G04 #@! TO.P,IC1,GND*
G04 #@! TO.N,Earth*
X34870000Y-23580000D03*
G04 #@! TO.P,IC1,D0*
G04 #@! TO.N,GPIO16*
X34870000Y-56600000D03*
G04 #@! TO.P,IC1,D1*
G04 #@! TO.N,SCL*
X34870000Y-54060000D03*
G04 #@! TO.P,IC1,D2*
G04 #@! TO.N,SDA*
X34870000Y-51520000D03*
G04 #@! TO.P,IC1,D3*
G04 #@! TO.N,GPIO0*
X34870000Y-48980000D03*
G04 #@! TO.P,IC1,D4*
G04 #@! TO.N,GPIO2*
X34870000Y-46440000D03*
G04 #@! TO.P,IC1,3V3*
G04 #@! TO.N,+3V3*
X34870000Y-43900000D03*
G04 #@! TO.P,IC1,D5*
G04 #@! TO.N,GPIO14*
X34870000Y-38820000D03*
G04 #@! TO.P,IC1,D6*
G04 #@! TO.N,GPIO12*
X34870000Y-36280000D03*
G04 #@! TO.P,IC1,D7*
G04 #@! TO.N,GPIO13*
X34870000Y-33740000D03*
G04 #@! TO.P,IC1,D8*
G04 #@! TO.N,GPIO15*
X34870000Y-31200000D03*
G04 #@! TO.P,IC1,VIN*
G04 #@! TO.N,VCC*
X57730000Y-21040000D03*
G04 #@! TO.P,IC1,GND*
G04 #@! TO.N,Earth*
X57730000Y-23580000D03*
G04 #@! TO.P,IC1,3V3*
G04 #@! TO.N,+3V3*
X57730000Y-31200000D03*
G04 #@! TO.P,IC1,GND*
G04 #@! TO.N,Earth*
X57730000Y-33740000D03*
D12*
G04 #@! TO.P,IC1,CLK*
G04 #@! TO.N,Net-(IC1-PadCLK)*
X57730000Y-36280000D03*
G04 #@! TO.P,IC1,SD0*
G04 #@! TO.N,Net-(IC1-PadSD0)*
X57730000Y-38820000D03*
G04 #@! TO.P,IC1,SD1*
G04 #@! TO.N,Net-(IC1-PadSD1)*
X57730000Y-43900000D03*
G04 #@! TO.P,IC1,SD2*
G04 #@! TO.N,Net-(IC1-PadSD2)*
X57730000Y-46440000D03*
G04 #@! TO.P,IC1,SD3*
G04 #@! TO.N,Net-(IC1-PadSD3)*
X57730000Y-48980000D03*
G04 #@! TO.P,IC1,R2*
G04 #@! TO.N,Net-(IC1-PadR2)*
X57730000Y-51520000D03*
G04 #@! TO.P,IC1,R1*
G04 #@! TO.N,Net-(IC1-PadR1)*
X57730000Y-54060000D03*
G04 #@! TO.P,IC1,A0*
G04 #@! TO.N,ADC0*
X57730000Y-56600000D03*
G04 #@! TD*
D13*
G04 #@! TO.P,SW3,1*
G04 #@! TO.N,Net-(SW3-Pad1)*
X81000000Y-27000000D03*
D14*
G04 #@! TO.P,SW3,2*
G04 #@! TO.N,GPIO15*
X83500000Y-27000000D03*
G04 #@! TO.P,SW3,3*
G04 #@! TO.N,Net-(R4-Pad1)*
X86000000Y-27000000D03*
G04 #@! TO.P,SW3,4*
X86000000Y-21000000D03*
G04 #@! TO.P,SW3,5*
G04 #@! TO.N,GPIO15*
X83500000Y-21000000D03*
D13*
G04 #@! TO.P,SW3,6*
G04 #@! TO.N,Net-(SW3-Pad6)*
X81000000Y-21000000D03*
G04 #@! TD*
D15*
G04 #@! TO.P,J1,1*
G04 #@! TO.N,Net-(D5-Pad2)*
X65000000Y-20000000D03*
G04 #@! TO.P,J1,2*
G04 #@! TO.N,Earth*
X70000000Y-20000000D03*
G04 #@! TD*
D16*
G04 #@! TO.P,U1,10*
G04 #@! TO.N,G*
X54120000Y-70920000D03*
G04 #@! TO.P,U1,9*
G04 #@! TO.N,F*
X54120000Y-73460000D03*
G04 #@! TO.P,U1,8*
G04 #@! TO.N,LCD7*
X54120000Y-76000000D03*
G04 #@! TO.P,U1,7*
G04 #@! TO.N,A*
X54120000Y-78540000D03*
G04 #@! TO.P,U1,6*
G04 #@! TO.N,B*
X54120000Y-81080000D03*
G04 #@! TO.P,U1,4*
G04 #@! TO.N,C*
X38880000Y-78540000D03*
G04 #@! TO.P,U1,2*
G04 #@! TO.N,D*
X38880000Y-73460000D03*
G04 #@! TO.P,U1,1*
G04 #@! TO.N,E*
X38880000Y-70920000D03*
G04 #@! TD*
D17*
G04 #@! TO.P,J5,1*
G04 #@! TO.N,VAIN*
X85000000Y-65000000D03*
G04 #@! TO.P,J5,2*
X85000000Y-67540000D03*
D11*
G04 #@! TO.P,J5,3*
G04 #@! TO.N,+3V3*
X85000000Y-70080000D03*
G04 #@! TO.P,J5,4*
G04 #@! TO.N,Earth*
X85000000Y-72620000D03*
G04 #@! TD*
D17*
G04 #@! TO.P,JP2,3*
G04 #@! TO.N,LCD7*
X66000000Y-75960000D03*
G04 #@! TO.P,JP2,2*
G04 #@! TO.N,Earth*
X66000000Y-78500000D03*
G04 #@! TO.P,JP2,1*
G04 #@! TO.N,LED*
X66000000Y-81040000D03*
G04 #@! TD*
G04 #@! TO.P,JP1,3*
G04 #@! TO.N,VAIN*
X66000000Y-61420000D03*
G04 #@! TO.P,JP1,2*
G04 #@! TO.N,ADC0*
X66000000Y-63960000D03*
G04 #@! TO.P,JP1,1*
G04 #@! TO.N,POT*
X66000000Y-66500000D03*
G04 #@! TD*
D18*
G04 #@! TO.P,RV1,2*
G04 #@! TO.N,POT*
X81498740Y-86000000D03*
G04 #@! TO.P,RV1,3*
G04 #@! TO.N,Earth*
X76497480Y-86000000D03*
G04 #@! TO.P,RV1,1*
G04 #@! TO.N,+3V3*
X86500000Y-86000000D03*
G04 #@! TD*
D17*
G04 #@! TO.P,R11,1*
G04 #@! TO.N,GPIO15*
X40040640Y-27500000D03*
D13*
G04 #@! TO.P,R11,2*
G04 #@! TO.N,G*
X47600000Y-27500000D03*
G04 #@! TD*
D17*
G04 #@! TO.P,R10,1*
G04 #@! TO.N,GPIO13*
X40000000Y-31250000D03*
D13*
G04 #@! TO.P,R10,2*
G04 #@! TO.N,F*
X47559360Y-31250000D03*
G04 #@! TD*
D17*
G04 #@! TO.P,R5,1*
G04 #@! TO.N,GPIO12*
X40000000Y-34750000D03*
D13*
G04 #@! TO.P,R5,2*
G04 #@! TO.N,A*
X47559360Y-34750000D03*
G04 #@! TD*
D17*
G04 #@! TO.P,R6,1*
G04 #@! TO.N,GPIO14*
X40000000Y-38750000D03*
D13*
G04 #@! TO.P,R6,2*
G04 #@! TO.N,B*
X47559360Y-38750000D03*
G04 #@! TD*
D17*
G04 #@! TO.P,R9,1*
G04 #@! TO.N,GPIO2*
X40040640Y-46000000D03*
D13*
G04 #@! TO.P,R9,2*
G04 #@! TO.N,E*
X47600000Y-46000000D03*
G04 #@! TD*
D17*
G04 #@! TO.P,R8,e*
G04 #@! TO.N,N/C*
X34874200Y-59994800D03*
X42433560Y-59994800D03*
G04 #@! TD*
G04 #@! TO.P,R7,1*
G04 #@! TO.N,GPIO0*
X40000000Y-49250000D03*
D13*
G04 #@! TO.P,R7,2*
G04 #@! TO.N,C*
X47559360Y-49250000D03*
G04 #@! TD*
D17*
G04 #@! TO.P,R2,1*
G04 #@! TO.N,+3V3*
X29800000Y-43990640D03*
G04 #@! TO.P,R2,2*
G04 #@! TO.N,SDA*
X29800000Y-51550000D03*
G04 #@! TD*
G04 #@! TO.P,R3,1*
G04 #@! TO.N,+3V3*
X26000000Y-46540640D03*
G04 #@! TO.P,R3,2*
G04 #@! TO.N,SCL*
X26000000Y-54100000D03*
G04 #@! TD*
D19*
G04 #@! TO.P,D4,1*
G04 #@! TO.N,A*
X53000000Y-85000000D03*
D17*
G04 #@! TO.P,D4,2*
G04 #@! TO.N,LED*
X53000000Y-87540000D03*
G04 #@! TD*
D19*
G04 #@! TO.P,D3,1*
G04 #@! TO.N,B*
X48500000Y-85000000D03*
D17*
G04 #@! TO.P,D3,2*
G04 #@! TO.N,LED*
X48500000Y-87540000D03*
G04 #@! TD*
D19*
G04 #@! TO.P,D2,1*
G04 #@! TO.N,C*
X44000000Y-85000000D03*
D17*
G04 #@! TO.P,D2,2*
G04 #@! TO.N,LED*
X44000000Y-87540000D03*
G04 #@! TD*
D19*
G04 #@! TO.P,D1,1*
G04 #@! TO.N,D*
X39500000Y-85000000D03*
D17*
G04 #@! TO.P,D1,2*
G04 #@! TO.N,LED*
X39500000Y-87540000D03*
G04 #@! TD*
D20*
G04 #@! TO.P,J3,1*
G04 #@! TO.N,SCL*
X23000000Y-84000000D03*
G04 #@! TO.P,J3,2*
G04 #@! TO.N,SDA*
X20460000Y-84000000D03*
G04 #@! TO.P,J3,3*
G04 #@! TO.N,+3V3*
X17920000Y-84000000D03*
G04 #@! TO.P,J3,4*
G04 #@! TO.N,Earth*
X15380000Y-84000000D03*
G04 #@! TD*
G04 #@! TO.P,J2,1*
G04 #@! TO.N,SCL*
X23000000Y-73000000D03*
G04 #@! TO.P,J2,2*
G04 #@! TO.N,SDA*
X20460000Y-73000000D03*
G04 #@! TO.P,J2,3*
G04 #@! TO.N,+3V3*
X17920000Y-73000000D03*
G04 #@! TO.P,J2,4*
G04 #@! TO.N,Earth*
X15380000Y-73000000D03*
G04 #@! TD*
G04 #@! TO.P,J4,1*
G04 #@! TO.N,SCL*
X23000000Y-62000000D03*
G04 #@! TO.P,J4,2*
G04 #@! TO.N,SDA*
X20460000Y-62000000D03*
G04 #@! TO.P,J4,3*
G04 #@! TO.N,+3V3*
X17920000Y-62000000D03*
G04 #@! TO.P,J4,4*
G04 #@! TO.N,Earth*
X15380000Y-62000000D03*
G04 #@! TD*
G04 #@! TO.P,J8,1*
G04 #@! TO.N,GPIO2*
X23000000Y-41000000D03*
G04 #@! TO.P,J8,2*
X20460000Y-41000000D03*
G04 #@! TO.P,J8,3*
G04 #@! TO.N,+3V3*
X17920000Y-41000000D03*
G04 #@! TO.P,J8,4*
G04 #@! TO.N,Earth*
X15380000Y-41000000D03*
G04 #@! TD*
G04 #@! TO.P,J7,1*
G04 #@! TO.N,GPIO13*
X23000000Y-30000000D03*
G04 #@! TO.P,J7,2*
G04 #@! TO.N,GPIO2*
X20460000Y-30000000D03*
G04 #@! TO.P,J7,3*
G04 #@! TO.N,+3V3*
X17920000Y-30000000D03*
G04 #@! TO.P,J7,4*
G04 #@! TO.N,Earth*
X15380000Y-30000000D03*
G04 #@! TD*
G04 #@! TO.P,J6,1*
G04 #@! TO.N,GPIO15*
X23000000Y-19000000D03*
G04 #@! TO.P,J6,2*
G04 #@! TO.N,GPIO13*
X20460000Y-19000000D03*
G04 #@! TO.P,J6,3*
G04 #@! TO.N,+3V3*
X17920000Y-19000000D03*
G04 #@! TO.P,J6,4*
G04 #@! TO.N,Earth*
X15380000Y-19000000D03*
G04 #@! TD*
D17*
G04 #@! TO.P,D5,2*
G04 #@! TO.N,Net-(D5-Pad2)*
X60880000Y-16800000D03*
G04 #@! TO.P,D5,1*
G04 #@! TO.N,VCC*
X55800000Y-16800000D03*
G04 #@! TD*
G04 #@! TO.P,R4,2*
G04 #@! TO.N,Earth*
X67240000Y-30400000D03*
G04 #@! TO.P,R4,1*
G04 #@! TO.N,Net-(R4-Pad1)*
X77400000Y-30400000D03*
G04 #@! TD*
G04 #@! TO.P,R12,2*
G04 #@! TO.N,Earth*
X76590000Y-51250000D03*
G04 #@! TO.P,R12,1*
G04 #@! TO.N,Net-(R12-Pad1)*
X86750000Y-51250000D03*
G04 #@! TD*
G04 #@! TO.P,R13,1*
G04 #@! TO.N,Net-(R13-Pad1)*
X87000000Y-41250000D03*
G04 #@! TO.P,R13,2*
G04 #@! TO.N,Earth*
X76840000Y-41250000D03*
G04 #@! TD*
D21*
G04 #@! TO.P,SW2,1*
G04 #@! TO.N,GPIO13*
X80250000Y-36250000D03*
G04 #@! TO.P,SW2,2*
G04 #@! TO.N,Net-(R13-Pad1)*
X86750000Y-36250000D03*
G04 #@! TD*
G04 #@! TO.P,SW1,1*
G04 #@! TO.N,GPIO2*
X80250000Y-46250000D03*
G04 #@! TO.P,SW1,2*
G04 #@! TO.N,Net-(R12-Pad1)*
X86750000Y-46250000D03*
G04 #@! TD*
D17*
G04 #@! TO.P,R14,2*
G04 #@! TO.N,Earth*
X71990000Y-71580000D03*
G04 #@! TO.P,R14,1*
G04 #@! TO.N,VAIN*
X71990000Y-61420000D03*
G04 #@! TD*
D14*
G04 #@! TO.P,R1,1*
G04 #@! TO.N,Net-(R1-Pad1)*
X88150000Y-61400000D03*
D17*
G04 #@! TO.P,R1,2*
G04 #@! TO.N,VAIN*
X77990000Y-61400000D03*
G04 #@! TD*
D22*
G04 #@! TO.N,LED*
X39500000Y-87540000D02*
X53000000Y-87540000D01*
X56500000Y-87540000D02*
X56000000Y-87540000D01*
X63000000Y-81040000D02*
X56500000Y-87540000D01*
X56000000Y-87540000D02*
X53000000Y-87540000D01*
X66000000Y-81040000D02*
X63000000Y-81040000D01*
D23*
G04 #@! TO.N,D*
X36000000Y-83000000D02*
X38000000Y-85000000D01*
X36000000Y-74378000D02*
X36000000Y-83000000D01*
X38880000Y-73460000D02*
X36918000Y-73460000D01*
X38000000Y-85000000D02*
X39500000Y-85000000D01*
X36918000Y-73460000D02*
X36000000Y-74378000D01*
X42433560Y-70406440D02*
X42433560Y-69799200D01*
X38880000Y-73460000D02*
X39380000Y-73460000D01*
X39380000Y-73460000D02*
X42433560Y-70406440D01*
X42433560Y-59994800D02*
X42433560Y-69799200D01*
G04 #@! TO.N,C*
X43878000Y-85000000D02*
X44000000Y-85000000D01*
X47559360Y-64099040D02*
X47559360Y-49250000D01*
X44500800Y-67157600D02*
X47559360Y-64099040D01*
X44500800Y-73419200D02*
X44500800Y-67157600D01*
X38880000Y-78540000D02*
X39380000Y-78540000D01*
X44000000Y-83400000D02*
X44000000Y-85000000D01*
X44000000Y-81698000D02*
X44000000Y-83400000D01*
X40842000Y-78540000D02*
X44000000Y-81698000D01*
X38880000Y-78540000D02*
X40842000Y-78540000D01*
X40842000Y-77078000D02*
X40868600Y-77051400D01*
X40868600Y-77051400D02*
X44500800Y-73419200D01*
X39380000Y-78540000D02*
X40868600Y-77051400D01*
X40330800Y-78540000D02*
X40842000Y-78028800D01*
X38880000Y-78540000D02*
X40330800Y-78540000D01*
X40842000Y-78028800D02*
X40842000Y-77078000D01*
X40842000Y-78540000D02*
X40842000Y-78028800D01*
G04 #@! TO.N,B*
X52158000Y-81080000D02*
X54120000Y-81080000D01*
X50820000Y-81080000D02*
X52158000Y-81080000D01*
X48500000Y-81180000D02*
X48400000Y-81080000D01*
X47380000Y-81080000D02*
X48500000Y-82200000D01*
X48500000Y-82200000D02*
X48500000Y-81180000D01*
X48500000Y-85000000D02*
X48500000Y-82200000D01*
X48500000Y-82180000D02*
X49600000Y-81080000D01*
X48400000Y-81080000D02*
X49600000Y-81080000D01*
X48500000Y-82200000D02*
X48500000Y-82180000D01*
X49600000Y-81080000D02*
X50820000Y-81080000D01*
X47559360Y-38750000D02*
X49600000Y-40790640D01*
X49600000Y-40790640D02*
X49600000Y-57912000D01*
X49600000Y-57912000D02*
X49600000Y-64750800D01*
X49600000Y-57912000D02*
X49600000Y-59800000D01*
X49600000Y-64750800D02*
X46253400Y-68097400D01*
X46253400Y-79953400D02*
X48500000Y-82200000D01*
X46253400Y-68097400D02*
X46253400Y-79953400D01*
X54120000Y-81080000D02*
X47380000Y-81080000D01*
G04 #@! TO.N,A*
X54600000Y-85000000D02*
X57000000Y-82600000D01*
X53000000Y-85000000D02*
X54600000Y-85000000D01*
X57000000Y-82600000D02*
X57000000Y-79200000D01*
X56340000Y-78540000D02*
X54120000Y-78540000D01*
X57000000Y-79200000D02*
X56340000Y-78540000D01*
X47559360Y-34750000D02*
X48559359Y-35749999D01*
X48559359Y-35749999D02*
X48559359Y-35759359D01*
X47559360Y-34750000D02*
X50850800Y-38041440D01*
X48559359Y-35759359D02*
X51200000Y-38400000D01*
X51200000Y-38400000D02*
X51200000Y-59486800D01*
X51200000Y-59486800D02*
X51200000Y-60452000D01*
X51200000Y-66021000D02*
X51200000Y-59486800D01*
X48071600Y-69149400D02*
X51200000Y-66021000D01*
X48071600Y-74453600D02*
X48071600Y-69149400D01*
X52158000Y-78540000D02*
X48071600Y-74453600D01*
X54120000Y-78540000D02*
X52158000Y-78540000D01*
D22*
G04 #@! TO.N,ADC0*
X57730000Y-59383800D02*
X62306200Y-63960000D01*
X57730000Y-56600000D02*
X57730000Y-59383800D01*
X66000000Y-63960000D02*
X62306200Y-63960000D01*
G04 #@! TO.N,Earth*
X15380000Y-57000000D02*
X15380000Y-53500000D01*
X15380000Y-55000000D02*
X15380000Y-77000000D01*
X15380000Y-19000000D02*
X15380000Y-55000000D01*
X66420000Y-23580000D02*
X70000000Y-20000000D01*
X57730000Y-23580000D02*
X66420000Y-23580000D01*
X15380000Y-62000000D02*
X15380000Y-84000000D01*
G04 #@! TO.N,+3V3*
X29890640Y-43900000D02*
X29800000Y-43990640D01*
X34870000Y-43900000D02*
X29890640Y-43900000D01*
X27250000Y-46540640D02*
X29800000Y-43990640D01*
X26000000Y-46540640D02*
X27250000Y-46540640D01*
X17920000Y-19500000D02*
X17920000Y-38000000D01*
X17920000Y-46000000D02*
X17920000Y-48000000D01*
X17920000Y-48000000D02*
X17920000Y-57000000D01*
X17920000Y-38000000D02*
X17920000Y-45000000D01*
X17920000Y-45000000D02*
X17920000Y-46000000D01*
X17920000Y-77000000D02*
X17920000Y-55000000D01*
D23*
X57730000Y-31200000D02*
X56400000Y-31200000D01*
D22*
X17920000Y-62000000D02*
X17920000Y-84000000D01*
X86500000Y-85499620D02*
X86500000Y-86000000D01*
X81500000Y-70080000D02*
X80025000Y-71555000D01*
X80025000Y-79024620D02*
X86500000Y-85499620D01*
X80025000Y-71555000D02*
X80025000Y-79024620D01*
X85000000Y-70080000D02*
X81500000Y-70080000D01*
X18460640Y-46540640D02*
X17920000Y-46000000D01*
X19460640Y-46540640D02*
X17920000Y-45000000D01*
X20193000Y-46540640D02*
X19460640Y-46540640D01*
X26000000Y-46540640D02*
X20193000Y-46540640D01*
X20193000Y-46540640D02*
X18460640Y-46540640D01*
X19379360Y-46540640D02*
X17920000Y-48000000D01*
X20193000Y-46540640D02*
X19379360Y-46540640D01*
D23*
X86250000Y-70080000D02*
X85000000Y-70080000D01*
X88138000Y-68192000D02*
X86250000Y-70080000D01*
D22*
X61230000Y-31200000D02*
X64250000Y-34220000D01*
X57730000Y-31200000D02*
X61230000Y-31200000D01*
X64250000Y-34220000D02*
X64250000Y-49772000D01*
X64250000Y-49772000D02*
X68072000Y-53594000D01*
X70728000Y-56250000D02*
X64250000Y-49772000D01*
X80250000Y-56250000D02*
X70728000Y-56250000D01*
D23*
X88138000Y-64638000D02*
X88138000Y-68192000D01*
X80250000Y-56750000D02*
X88138000Y-64638000D01*
X80250000Y-56250000D02*
X80250000Y-56750000D01*
D22*
G04 #@! TO.N,VCC*
X55800000Y-19110000D02*
X57730000Y-21040000D01*
X55800000Y-16800000D02*
X55800000Y-19110000D01*
G04 #@! TO.N,GPIO15*
X36340640Y-31200000D02*
X40040640Y-27500000D01*
X34870000Y-31200000D02*
X36340640Y-31200000D01*
X34870000Y-31200000D02*
X27200000Y-31200000D01*
X27200000Y-31200000D02*
X25000000Y-29000000D01*
X23000000Y-22500000D02*
X23000000Y-19000000D01*
X25000000Y-24500000D02*
X23000000Y-22500000D01*
X25000000Y-29000000D02*
X25000000Y-24500000D01*
D23*
X66400000Y-25699999D02*
X65200000Y-25699999D01*
D24*
X40040640Y-27500000D02*
X43940640Y-23600000D01*
D25*
X83500000Y-21000000D02*
X83500000Y-27000000D01*
D23*
X41040639Y-26500001D02*
X41063999Y-26500001D01*
X40040640Y-27500000D02*
X41040639Y-26500001D01*
X40040640Y-27500000D02*
X44680640Y-22860000D01*
X52024001Y-22860000D02*
X54864000Y-25699999D01*
X44680640Y-22860000D02*
X52024001Y-22860000D01*
X54864000Y-25699999D02*
X65200000Y-25699999D01*
X65200000Y-25699999D02*
X76199999Y-25699999D01*
X83500000Y-27750000D02*
X82344800Y-28905200D01*
X82344800Y-28905200D02*
X79405200Y-28905200D01*
X83500000Y-27000000D02*
X83500000Y-27750000D01*
X76199999Y-25699999D02*
X79405200Y-28905200D01*
D22*
G04 #@! TO.N,GPIO13*
X37510000Y-33740000D02*
X40000000Y-31250000D01*
X34870000Y-33740000D02*
X37510000Y-33740000D01*
X20460000Y-22500000D02*
X20460000Y-19000000D01*
X20460000Y-23960000D02*
X20460000Y-22500000D01*
X23000000Y-26500000D02*
X20460000Y-23960000D01*
X23000000Y-30000000D02*
X23000000Y-26500000D01*
X23000000Y-31250000D02*
X23000000Y-30000000D01*
X25490000Y-33740000D02*
X23000000Y-31250000D01*
X34870000Y-33740000D02*
X25490000Y-33740000D01*
D23*
X46570000Y-24130000D02*
X51308000Y-24130000D01*
X51308000Y-24130000D02*
X54378000Y-27200000D01*
X54378000Y-27200000D02*
X69967766Y-27200000D01*
X43623600Y-29040613D02*
X43623600Y-27076400D01*
X41414213Y-31250000D02*
X43623600Y-29040613D01*
X40000000Y-31250000D02*
X41414213Y-31250000D01*
X43623600Y-27076400D02*
X46570000Y-24130000D01*
X80500000Y-36250000D02*
X79085787Y-36250000D01*
X69967766Y-27200000D02*
X76267766Y-33500000D01*
X79017766Y-36250000D02*
X69967766Y-27200000D01*
X80500000Y-36250000D02*
X79017766Y-36250000D01*
D22*
G04 #@! TO.N,GPIO12*
X38470000Y-36280000D02*
X40000000Y-34750000D01*
X34870000Y-36280000D02*
X38470000Y-36280000D01*
G04 #@! TO.N,GPIO14*
X39930000Y-38820000D02*
X40000000Y-38750000D01*
X34870000Y-38820000D02*
X39930000Y-38820000D01*
G04 #@! TO.N,GPIO2*
X20750000Y-41000000D02*
X20460000Y-40710000D01*
X23000000Y-41000000D02*
X20750000Y-41000000D01*
X23000000Y-41000000D02*
X23000000Y-40000000D01*
X20460000Y-38460000D02*
X23000000Y-41000000D01*
X20460000Y-30000000D02*
X20460000Y-37000000D01*
X20460000Y-41000000D02*
X20460000Y-37000000D01*
X20460000Y-37000000D02*
X20460000Y-38460000D01*
X39600640Y-46440000D02*
X40040640Y-46000000D01*
X34870000Y-46440000D02*
X39600640Y-46440000D01*
D23*
X42392000Y-46000000D02*
X40040640Y-46000000D01*
X45212000Y-43180000D02*
X42392000Y-46000000D01*
X45212000Y-27178000D02*
X45212000Y-43180000D01*
X69250000Y-28650000D02*
X53848000Y-28650000D01*
X53848000Y-28650000D02*
X50598000Y-25400000D01*
X50598000Y-25400000D02*
X46990000Y-25400000D01*
X46990000Y-25400000D02*
X45212000Y-27178000D01*
X80250000Y-39650000D02*
X77750000Y-37150000D01*
X80250000Y-46250000D02*
X80250000Y-39650000D01*
X77750000Y-37150000D02*
X69250000Y-28650000D01*
D22*
X20460000Y-41000000D02*
X36936000Y-41000000D01*
X40040640Y-44104640D02*
X40040640Y-46000000D01*
X38370000Y-46440000D02*
X40040640Y-44769360D01*
X40040640Y-44769360D02*
X40040640Y-44104640D01*
X34870000Y-46440000D02*
X38370000Y-46440000D01*
X36936000Y-41000000D02*
X40040640Y-44104640D01*
G04 #@! TO.N,GPIO0*
X39730000Y-48980000D02*
X40000000Y-49250000D01*
X34870000Y-48980000D02*
X39730000Y-48980000D01*
G04 #@! TO.N,SDA*
X22440000Y-51520000D02*
X34870000Y-51520000D01*
X20460000Y-57000000D02*
X20460000Y-53500000D01*
X20460000Y-53500000D02*
X22440000Y-51520000D01*
X20460000Y-58500000D02*
X20460000Y-77000000D01*
X20460000Y-55000000D02*
X20460000Y-58500000D01*
X20460000Y-80500000D02*
X20460000Y-62000000D01*
X20460000Y-84000000D02*
X20460000Y-80500000D01*
G04 #@! TO.N,SCL*
X23000000Y-57000000D02*
X23000000Y-55000000D01*
X23940000Y-54060000D02*
X34870000Y-54060000D01*
X23000000Y-55000000D02*
X23940000Y-54060000D01*
X23000000Y-77000000D02*
X23000000Y-55000000D01*
X23900000Y-54100000D02*
X23000000Y-55000000D01*
X26000000Y-54100000D02*
X23900000Y-54100000D01*
X23000000Y-62000000D02*
X23000000Y-84000000D01*
G04 #@! TO.N,GPIO16*
X34870000Y-59990600D02*
X34874200Y-59994800D01*
X34870000Y-56600000D02*
X34870000Y-59990600D01*
G04 #@! TO.N,VAIN*
X85000000Y-67540000D02*
X85000000Y-65000000D01*
X77970000Y-61420000D02*
X77990000Y-61400000D01*
X66000000Y-61420000D02*
X77970000Y-61420000D01*
X66000000Y-61420000D02*
X71990000Y-61420000D01*
X81400000Y-61400000D02*
X85000000Y-65000000D01*
X77990000Y-61400000D02*
X81400000Y-61400000D01*
G04 #@! TO.N,POT*
X81498740Y-85499620D02*
X77550000Y-81550880D01*
X77400000Y-81400880D02*
X81498740Y-85499620D01*
X81498740Y-85499620D02*
X81498740Y-86000000D01*
X66000000Y-66500000D02*
X72620000Y-66500000D01*
X77400000Y-71280000D02*
X77400000Y-81400880D01*
X72620000Y-66500000D02*
X77400000Y-71280000D01*
G04 #@! TO.N,LCD7*
X54160000Y-75960000D02*
X54120000Y-76000000D01*
X66000000Y-75960000D02*
X54160000Y-75960000D01*
D25*
G04 #@! TO.N,Net-(R4-Pad1)*
X77400000Y-30400000D02*
X78531370Y-30400000D01*
X86000000Y-21000000D02*
X86000000Y-27000000D01*
X85100000Y-30400000D02*
X86000000Y-29500000D01*
X86000000Y-29500000D02*
X86000000Y-27000000D01*
X77400000Y-30400000D02*
X85100000Y-30400000D01*
D23*
G04 #@! TO.N,E*
X38880000Y-54720000D02*
X38880000Y-57000000D01*
X47600000Y-46000000D02*
X38880000Y-54720000D01*
X38880000Y-57000000D02*
X38880000Y-70920000D01*
G04 #@! TO.N,F*
X51870000Y-73460000D02*
X54120000Y-73460000D01*
X50495200Y-72085200D02*
X51870000Y-73460000D01*
X47559360Y-31250000D02*
X47650000Y-31250000D01*
X50495200Y-69291200D02*
X50495200Y-72085200D01*
X47650000Y-31250000D02*
X52800000Y-36400000D01*
X52800000Y-66986400D02*
X50495200Y-69291200D01*
X52800000Y-36400000D02*
X52800000Y-66986400D01*
G04 #@! TO.N,G*
X47600000Y-27500000D02*
X54120000Y-34020000D01*
X54120000Y-56235600D02*
X54120000Y-70920000D01*
X54120000Y-34020000D02*
X54120000Y-56235600D01*
D22*
G04 #@! TO.N,Net-(R12-Pad1)*
X86810000Y-50990000D02*
X86800000Y-51000000D01*
X86810000Y-46000000D02*
X86810000Y-50990000D01*
G04 #@! TO.N,Net-(R13-Pad1)*
X86810000Y-40790000D02*
X86800000Y-40800000D01*
X87000000Y-36500000D02*
X86750000Y-36250000D01*
X87000000Y-41250000D02*
X87000000Y-36500000D01*
D26*
G04 #@! TO.N,Net-(D5-Pad2)*
X65000000Y-20000000D02*
X64080000Y-20000000D01*
D22*
X61800000Y-16800000D02*
X65000000Y-20000000D01*
X60880000Y-16800000D02*
X61800000Y-16800000D01*
G04 #@! TO.N,Net-(R1-Pad1)*
X86750000Y-60000000D02*
X88150000Y-61400000D01*
X86750000Y-56250000D02*
X86750000Y-60000000D01*
G04 #@! TD*
D23*
G04 #@! TO.N,Earth*
G36*
X89865000Y-59994139D02*
X89854982Y-59943773D01*
X89454937Y-59345063D01*
X88856227Y-58945018D01*
X88560000Y-58886095D01*
X88560000Y-57852226D01*
X88735177Y-57735177D01*
X89190477Y-57053772D01*
X89350357Y-56250000D01*
X89190477Y-55446228D01*
X88735177Y-54764823D01*
X88053772Y-54309523D01*
X87452889Y-54190000D01*
X86047111Y-54190000D01*
X85446228Y-54309523D01*
X84764823Y-54764823D01*
X84309523Y-55446228D01*
X84149643Y-56250000D01*
X84309523Y-57053772D01*
X84764823Y-57735177D01*
X84940000Y-57852227D01*
X84940001Y-59445960D01*
X82633334Y-57139293D01*
X82690477Y-57053772D01*
X82850357Y-56250000D01*
X82690477Y-55446228D01*
X82235177Y-54764823D01*
X81553772Y-54309523D01*
X80952889Y-54190000D01*
X79547111Y-54190000D01*
X78946228Y-54309523D01*
X78750955Y-54440000D01*
X71477727Y-54440000D01*
X69477915Y-52440188D01*
X68287727Y-51250000D01*
X84154541Y-51250000D01*
X84295018Y-51956227D01*
X84695063Y-52554937D01*
X85293773Y-52954982D01*
X85821735Y-53060000D01*
X87678265Y-53060000D01*
X88206227Y-52954982D01*
X88804937Y-52554937D01*
X89204982Y-51956227D01*
X89345459Y-51250000D01*
X89204982Y-50543773D01*
X88804937Y-49945063D01*
X88620000Y-49821492D01*
X88620000Y-47659248D01*
X88690477Y-47553771D01*
X88810000Y-46952888D01*
X88810000Y-45547111D01*
X88690477Y-44946228D01*
X88235177Y-44264823D01*
X87553771Y-43809523D01*
X86750000Y-43649643D01*
X85946228Y-43809523D01*
X85264823Y-44264823D01*
X84809523Y-44946229D01*
X84690000Y-45547112D01*
X84690000Y-46952889D01*
X84809523Y-47553772D01*
X85000000Y-47838841D01*
X85000001Y-49741310D01*
X84695063Y-49945063D01*
X84295018Y-50543773D01*
X84154541Y-51250000D01*
X68287727Y-51250000D01*
X66060000Y-49022275D01*
X66060000Y-34398265D01*
X66095459Y-34220000D01*
X65954982Y-33513773D01*
X65554937Y-32915063D01*
X65403808Y-32814082D01*
X62649725Y-30060000D01*
X68665960Y-30060000D01*
X76851175Y-38245216D01*
X76851178Y-38245218D01*
X78840001Y-40234042D01*
X78840000Y-44214591D01*
X78764823Y-44264823D01*
X78309523Y-44946229D01*
X78190000Y-45547112D01*
X78190000Y-46952889D01*
X78309523Y-47553772D01*
X78764824Y-48235177D01*
X79446229Y-48690477D01*
X80250000Y-48850357D01*
X81053772Y-48690477D01*
X81735177Y-48235177D01*
X82190477Y-47553771D01*
X82310000Y-46952888D01*
X82310000Y-45547111D01*
X82190477Y-44946228D01*
X81735177Y-44264823D01*
X81660000Y-44214591D01*
X81660000Y-41250000D01*
X84404541Y-41250000D01*
X84545018Y-41956227D01*
X84945063Y-42554937D01*
X85543773Y-42954982D01*
X86071735Y-43060000D01*
X86821735Y-43060000D01*
X87000000Y-43095459D01*
X87178265Y-43060000D01*
X87928265Y-43060000D01*
X88456227Y-42954982D01*
X89054937Y-42554937D01*
X89454982Y-41956227D01*
X89595459Y-41250000D01*
X89454982Y-40543773D01*
X89054937Y-39945063D01*
X88810000Y-39781401D01*
X88810000Y-36678263D01*
X88845459Y-36499999D01*
X88810000Y-36321735D01*
X88810000Y-35547111D01*
X88690477Y-34946228D01*
X88235177Y-34264823D01*
X87553771Y-33809523D01*
X86750000Y-33649643D01*
X85946228Y-33809523D01*
X85264823Y-34264823D01*
X84809523Y-34946229D01*
X84690000Y-35547112D01*
X84690000Y-36952889D01*
X84809523Y-37553772D01*
X85190001Y-38123196D01*
X85190000Y-39781401D01*
X84945063Y-39945063D01*
X84545018Y-40543773D01*
X84404541Y-41250000D01*
X81660000Y-41250000D01*
X81660000Y-39788869D01*
X81687623Y-39650000D01*
X81578190Y-39099846D01*
X81578190Y-39099845D01*
X81266553Y-38633447D01*
X81202838Y-38590874D01*
X81735177Y-38235177D01*
X82190477Y-37553771D01*
X82310000Y-36952888D01*
X82310000Y-35547111D01*
X82190477Y-34946228D01*
X81735177Y-34264823D01*
X81053771Y-33809523D01*
X80250000Y-33649643D01*
X79446228Y-33809523D01*
X78921765Y-34159958D01*
X76971807Y-32210000D01*
X78328265Y-32210000D01*
X78856227Y-32104982D01*
X79073208Y-31960000D01*
X84946358Y-31960000D01*
X85100000Y-31990561D01*
X85253642Y-31960000D01*
X85253646Y-31960000D01*
X85708682Y-31869488D01*
X86224697Y-31524697D01*
X86311732Y-31394440D01*
X86994440Y-30711732D01*
X87124697Y-30624697D01*
X87469488Y-30108682D01*
X87560000Y-29653646D01*
X87560000Y-29653642D01*
X87590561Y-29500001D01*
X87560000Y-29346360D01*
X87560000Y-28673208D01*
X87704982Y-28456227D01*
X87810000Y-27928265D01*
X87810000Y-26071735D01*
X87704982Y-25543773D01*
X87560000Y-25326792D01*
X87560000Y-22673208D01*
X87704982Y-22456227D01*
X87810000Y-21928265D01*
X87810000Y-20071735D01*
X87704982Y-19543773D01*
X87304937Y-18945063D01*
X86706226Y-18545018D01*
X86000000Y-18404541D01*
X85293773Y-18545018D01*
X84750000Y-18908355D01*
X84206226Y-18545018D01*
X83500000Y-18404541D01*
X82793773Y-18545018D01*
X82195063Y-18945063D01*
X82027481Y-19195868D01*
X81409760Y-18940000D01*
X80590240Y-18940000D01*
X79833104Y-19253616D01*
X79253616Y-19833104D01*
X78940000Y-20590240D01*
X78940000Y-21409760D01*
X79253616Y-22166896D01*
X79833104Y-22746384D01*
X80590240Y-23060000D01*
X81409760Y-23060000D01*
X81940000Y-22840367D01*
X81940001Y-25159633D01*
X81409760Y-24940000D01*
X80590240Y-24940000D01*
X79833104Y-25253616D01*
X79253616Y-25833104D01*
X78982259Y-26488218D01*
X77295218Y-24801178D01*
X77216552Y-24683446D01*
X76750154Y-24371809D01*
X76338869Y-24289999D01*
X76338868Y-24289999D01*
X76199999Y-24262376D01*
X76061130Y-24289999D01*
X55448041Y-24289999D01*
X53119220Y-21961179D01*
X53040554Y-21843447D01*
X52574156Y-21531810D01*
X52162871Y-21450000D01*
X52162870Y-21450000D01*
X52024001Y-21422377D01*
X51885132Y-21450000D01*
X44819509Y-21450000D01*
X44680640Y-21422377D01*
X44541771Y-21450000D01*
X44541770Y-21450000D01*
X44130485Y-21531810D01*
X43664087Y-21843447D01*
X43585423Y-21961176D01*
X40141817Y-25404783D01*
X40024086Y-25483448D01*
X39945422Y-25601177D01*
X39856599Y-25690000D01*
X39112375Y-25690000D01*
X38584413Y-25795018D01*
X37985703Y-26195063D01*
X37585658Y-26793773D01*
X37445181Y-27500000D01*
X37451109Y-27529804D01*
X35590915Y-29390000D01*
X27949726Y-29390000D01*
X26810000Y-28250275D01*
X26810000Y-24678264D01*
X26845459Y-24499999D01*
X26704982Y-23793773D01*
X26304937Y-23195063D01*
X26153807Y-23094081D01*
X24810000Y-21750275D01*
X24810000Y-21040000D01*
X31774541Y-21040000D01*
X31915018Y-21746227D01*
X32315063Y-22344937D01*
X32913773Y-22744982D01*
X33441735Y-22850000D01*
X36298265Y-22850000D01*
X36826227Y-22744982D01*
X37424937Y-22344937D01*
X37824982Y-21746227D01*
X37965459Y-21040000D01*
X37824982Y-20333773D01*
X37424937Y-19735063D01*
X36826227Y-19335018D01*
X36298265Y-19230000D01*
X33441735Y-19230000D01*
X32913773Y-19335018D01*
X32315063Y-19735063D01*
X31915018Y-20333773D01*
X31774541Y-21040000D01*
X24810000Y-21040000D01*
X24810000Y-17571735D01*
X24704982Y-17043773D01*
X24542099Y-16800000D01*
X53204541Y-16800000D01*
X53345018Y-17506227D01*
X53745063Y-18104937D01*
X53990001Y-18268599D01*
X53990001Y-18931731D01*
X53954541Y-19110000D01*
X54095018Y-19816226D01*
X54095019Y-19816227D01*
X54495064Y-20414937D01*
X54646193Y-20515918D01*
X54723425Y-20593150D01*
X54634541Y-21040000D01*
X54775018Y-21746227D01*
X55175063Y-22344937D01*
X55773773Y-22744982D01*
X56301735Y-22850000D01*
X57551734Y-22850000D01*
X57729999Y-22885459D01*
X57908264Y-22850000D01*
X59158265Y-22850000D01*
X59686227Y-22744982D01*
X60284937Y-22344937D01*
X60684982Y-21746227D01*
X60825459Y-21040000D01*
X60684982Y-20333773D01*
X60284937Y-19735063D01*
X59686227Y-19335018D01*
X59158265Y-19230000D01*
X58479726Y-19230000D01*
X57610000Y-18360274D01*
X57610000Y-18268599D01*
X57854937Y-18104937D01*
X58254982Y-17506227D01*
X58340000Y-17078812D01*
X58425018Y-17506227D01*
X58825063Y-18104937D01*
X59423773Y-18504982D01*
X59951735Y-18610000D01*
X61050275Y-18610000D01*
X61972999Y-19532725D01*
X61880052Y-20000000D01*
X62117544Y-21193952D01*
X62793864Y-22206136D01*
X63806048Y-22882456D01*
X64698621Y-23060000D01*
X65301379Y-23060000D01*
X66193952Y-22882456D01*
X67206136Y-22206136D01*
X67882456Y-21193952D01*
X68119948Y-20000000D01*
X67882456Y-18806048D01*
X67206136Y-17793864D01*
X66193952Y-17117544D01*
X65301379Y-16940000D01*
X64698621Y-16940000D01*
X64532725Y-16972999D01*
X63205920Y-15646195D01*
X63104937Y-15495063D01*
X62506227Y-15095018D01*
X61978265Y-14990000D01*
X61800000Y-14954541D01*
X61621735Y-14990000D01*
X59951735Y-14990000D01*
X59423773Y-15095018D01*
X58825063Y-15495063D01*
X58425018Y-16093773D01*
X58340000Y-16521188D01*
X58254982Y-16093773D01*
X57854937Y-15495063D01*
X57256227Y-15095018D01*
X56728265Y-14990000D01*
X55978265Y-14990000D01*
X55800000Y-14954541D01*
X55621735Y-14990000D01*
X54871735Y-14990000D01*
X54343773Y-15095018D01*
X53745063Y-15495063D01*
X53345018Y-16093773D01*
X53204541Y-16800000D01*
X24542099Y-16800000D01*
X24304937Y-16445063D01*
X23706227Y-16045018D01*
X23000000Y-15904541D01*
X22293774Y-16045018D01*
X21730000Y-16421719D01*
X21166227Y-16045018D01*
X20460000Y-15904541D01*
X19753774Y-16045018D01*
X19190000Y-16421719D01*
X18626227Y-16045018D01*
X17920000Y-15904541D01*
X17213774Y-16045018D01*
X16615064Y-16445063D01*
X16215019Y-17043773D01*
X16110001Y-17571735D01*
X16110000Y-19321734D01*
X16110000Y-19321736D01*
X16110001Y-28766553D01*
X16110000Y-31428264D01*
X16110001Y-31428267D01*
X16110001Y-37821731D01*
X16110000Y-37821736D01*
X16110000Y-42428264D01*
X16110001Y-42428267D01*
X16110001Y-44821731D01*
X16074541Y-45000000D01*
X16110000Y-45178265D01*
X16110000Y-45821735D01*
X16074541Y-46000000D01*
X16110000Y-46178265D01*
X16110001Y-47821731D01*
X16074541Y-48000000D01*
X16110000Y-48178265D01*
X16110001Y-54821735D01*
X16110001Y-61821733D01*
X16110000Y-61821736D01*
X16110000Y-77178264D01*
X16110001Y-77178267D01*
X16110001Y-82571735D01*
X16110000Y-85428264D01*
X16215018Y-85956226D01*
X16615063Y-86554937D01*
X17213773Y-86954982D01*
X17920000Y-87095459D01*
X18626226Y-86954982D01*
X19190000Y-86578281D01*
X19753773Y-86954982D01*
X20460000Y-87095459D01*
X21166226Y-86954982D01*
X21730000Y-86578281D01*
X22293773Y-86954982D01*
X23000000Y-87095459D01*
X23706226Y-86954982D01*
X24304937Y-86554937D01*
X24704982Y-85956227D01*
X24810000Y-85428265D01*
X24810000Y-55910000D01*
X26928265Y-55910000D01*
X27129359Y-55870000D01*
X31930903Y-55870000D01*
X31915018Y-55893773D01*
X31774541Y-56600000D01*
X31915018Y-57306227D01*
X32315063Y-57904937D01*
X32913773Y-58304982D01*
X33060001Y-58334068D01*
X33060001Y-58529007D01*
X32819263Y-58689863D01*
X32419218Y-59288573D01*
X32278741Y-59994800D01*
X32419218Y-60701027D01*
X32819263Y-61299737D01*
X33417973Y-61699782D01*
X33945935Y-61804800D01*
X34695935Y-61804800D01*
X34874200Y-61840259D01*
X35052465Y-61804800D01*
X35802465Y-61804800D01*
X36330427Y-61699782D01*
X36929137Y-61299737D01*
X37329182Y-60701027D01*
X37469659Y-59994800D01*
X37329182Y-59288573D01*
X36929137Y-58689863D01*
X36680000Y-58523395D01*
X36680000Y-58334068D01*
X36826227Y-58304982D01*
X37424937Y-57904937D01*
X37470000Y-57837495D01*
X37470001Y-69336741D01*
X37066411Y-69606411D01*
X36663714Y-70209091D01*
X36522305Y-70920000D01*
X36663714Y-71630909D01*
X36926401Y-72024048D01*
X36917999Y-72022377D01*
X36779130Y-72050000D01*
X36367845Y-72131810D01*
X35901447Y-72443447D01*
X35822784Y-72561175D01*
X35101176Y-73282784D01*
X34983447Y-73361448D01*
X34671810Y-73827846D01*
X34671810Y-73827847D01*
X34562377Y-74378000D01*
X34590000Y-74516869D01*
X34590001Y-82861126D01*
X34562377Y-83000000D01*
X34671810Y-83550153D01*
X34671811Y-83550154D01*
X34671811Y-83550155D01*
X34983448Y-84016553D01*
X35101177Y-84095217D01*
X36904783Y-85898824D01*
X36983447Y-86016553D01*
X37403520Y-86297237D01*
X37045018Y-86833773D01*
X36904541Y-87540000D01*
X37045018Y-88246227D01*
X37445063Y-88844937D01*
X38043773Y-89244982D01*
X38571735Y-89350000D01*
X56321735Y-89350000D01*
X56500000Y-89385459D01*
X56678265Y-89350000D01*
X57206227Y-89244982D01*
X57804937Y-88844937D01*
X57905920Y-88693805D01*
X63749726Y-82850000D01*
X66928265Y-82850000D01*
X67456227Y-82744982D01*
X68054937Y-82344937D01*
X68454982Y-81746227D01*
X68595459Y-81040000D01*
X68454982Y-80333773D01*
X68054937Y-79735063D01*
X67456227Y-79335018D01*
X66928265Y-79230000D01*
X63178264Y-79230000D01*
X62999999Y-79194541D01*
X62716618Y-79250909D01*
X62293773Y-79335018D01*
X61695063Y-79735063D01*
X61594082Y-79886192D01*
X58324305Y-83155970D01*
X58328190Y-83150155D01*
X58410000Y-82738870D01*
X58410000Y-82738869D01*
X58437623Y-82600000D01*
X58410000Y-82461131D01*
X58410000Y-79338869D01*
X58437623Y-79200000D01*
X58406862Y-79045353D01*
X58328190Y-78649845D01*
X58016553Y-78183447D01*
X57898821Y-78104781D01*
X57564040Y-77770000D01*
X66928265Y-77770000D01*
X67456227Y-77664982D01*
X68054937Y-77264937D01*
X68454982Y-76666227D01*
X68595459Y-75960000D01*
X68454982Y-75253773D01*
X68054937Y-74655063D01*
X67456227Y-74255018D01*
X66928265Y-74150000D01*
X56340445Y-74150000D01*
X56477695Y-73460000D01*
X56336286Y-72749091D01*
X55962714Y-72190000D01*
X56336286Y-71630909D01*
X56477695Y-70920000D01*
X56336286Y-70209091D01*
X55933589Y-69606411D01*
X55530000Y-69336742D01*
X55530000Y-36280000D01*
X55634541Y-36280000D01*
X55775018Y-36986227D01*
X56151719Y-37550000D01*
X55775018Y-38113773D01*
X55634541Y-38820000D01*
X55775018Y-39526227D01*
X56175063Y-40124937D01*
X56773773Y-40524982D01*
X57301735Y-40630000D01*
X58158265Y-40630000D01*
X58686227Y-40524982D01*
X59284937Y-40124937D01*
X59684982Y-39526227D01*
X59825459Y-38820000D01*
X59684982Y-38113773D01*
X59308281Y-37550000D01*
X59684982Y-36986227D01*
X59825459Y-36280000D01*
X59684982Y-35573773D01*
X59284937Y-34975063D01*
X58686227Y-34575018D01*
X58158265Y-34470000D01*
X57301735Y-34470000D01*
X56773773Y-34575018D01*
X56175063Y-34975063D01*
X55775018Y-35573773D01*
X55634541Y-36280000D01*
X55530000Y-36280000D01*
X55530000Y-34158865D01*
X55557622Y-34019999D01*
X55530000Y-33881131D01*
X55530000Y-33881130D01*
X55448190Y-33469845D01*
X55136552Y-33003447D01*
X55018826Y-32924785D01*
X49660000Y-27565960D01*
X49660000Y-27090240D01*
X49543921Y-26810000D01*
X50013960Y-26810000D01*
X52752783Y-29548824D01*
X52831447Y-29666553D01*
X53297845Y-29978190D01*
X53709130Y-30060000D01*
X53709134Y-30060000D01*
X53847999Y-30087622D01*
X53986865Y-30060000D01*
X55064856Y-30060000D01*
X54775018Y-30493773D01*
X54634541Y-31200000D01*
X54775018Y-31906227D01*
X55175063Y-32504937D01*
X55773773Y-32904982D01*
X56301735Y-33010000D01*
X60480275Y-33010000D01*
X62440000Y-34969726D01*
X62440001Y-49593731D01*
X62404541Y-49772000D01*
X62545018Y-50478226D01*
X62545019Y-50478227D01*
X62945064Y-51076937D01*
X63096193Y-51177918D01*
X66918188Y-54999915D01*
X66918190Y-54999917D01*
X69322084Y-57403810D01*
X69423063Y-57554937D01*
X70021773Y-57954982D01*
X70549735Y-58060000D01*
X70549736Y-58060000D01*
X70727999Y-58095459D01*
X70906263Y-58060000D01*
X78750955Y-58060000D01*
X78946228Y-58190477D01*
X79547111Y-58310000D01*
X79815960Y-58310000D01*
X81095960Y-59590000D01*
X78168264Y-59590000D01*
X77989999Y-59554541D01*
X77811735Y-59590000D01*
X77061735Y-59590000D01*
X76961188Y-59610000D01*
X65071735Y-59610000D01*
X64543773Y-59715018D01*
X63945063Y-60115063D01*
X63545018Y-60713773D01*
X63404541Y-61420000D01*
X63545018Y-62126227D01*
X63560903Y-62150000D01*
X63055926Y-62150000D01*
X59540000Y-58634075D01*
X59540000Y-57523208D01*
X59684982Y-57306227D01*
X59825459Y-56600000D01*
X59684982Y-55893773D01*
X59308281Y-55330000D01*
X59684982Y-54766227D01*
X59825459Y-54060000D01*
X59684982Y-53353773D01*
X59308281Y-52790000D01*
X59684982Y-52226227D01*
X59825459Y-51520000D01*
X59684982Y-50813773D01*
X59308281Y-50250000D01*
X59684982Y-49686227D01*
X59825459Y-48980000D01*
X59684982Y-48273773D01*
X59308281Y-47710000D01*
X59684982Y-47146227D01*
X59825459Y-46440000D01*
X59684982Y-45733773D01*
X59308281Y-45170000D01*
X59684982Y-44606227D01*
X59825459Y-43900000D01*
X59684982Y-43193773D01*
X59284937Y-42595063D01*
X58686227Y-42195018D01*
X58158265Y-42090000D01*
X57301735Y-42090000D01*
X56773773Y-42195018D01*
X56175063Y-42595063D01*
X55775018Y-43193773D01*
X55634541Y-43900000D01*
X55775018Y-44606227D01*
X56151719Y-45170000D01*
X55775018Y-45733773D01*
X55634541Y-46440000D01*
X55775018Y-47146227D01*
X56151719Y-47710000D01*
X55775018Y-48273773D01*
X55634541Y-48980000D01*
X55775018Y-49686227D01*
X56151719Y-50250000D01*
X55775018Y-50813773D01*
X55634541Y-51520000D01*
X55775018Y-52226227D01*
X56151719Y-52790000D01*
X55775018Y-53353773D01*
X55634541Y-54060000D01*
X55775018Y-54766227D01*
X56151719Y-55330000D01*
X55775018Y-55893773D01*
X55634541Y-56600000D01*
X55775018Y-57306227D01*
X55920000Y-57523209D01*
X55920001Y-59205531D01*
X55884541Y-59383800D01*
X56025018Y-60090026D01*
X56068126Y-60154541D01*
X56425064Y-60688737D01*
X56576193Y-60789718D01*
X60900282Y-65113808D01*
X61001263Y-65264937D01*
X61576990Y-65649625D01*
X61599973Y-65664982D01*
X62306199Y-65805459D01*
X62484464Y-65770000D01*
X63560903Y-65770000D01*
X63545018Y-65793773D01*
X63404541Y-66500000D01*
X63545018Y-67206227D01*
X63945063Y-67804937D01*
X64543773Y-68204982D01*
X65071735Y-68310000D01*
X71870275Y-68310000D01*
X75590000Y-72029726D01*
X75590001Y-81222611D01*
X75554541Y-81400880D01*
X75695018Y-82107106D01*
X75744868Y-82181711D01*
X76095064Y-82705817D01*
X76246193Y-82806798D01*
X78257683Y-84818289D01*
X78938870Y-85499476D01*
X78938870Y-86752500D01*
X79087396Y-87499190D01*
X79653177Y-88345943D01*
X80499929Y-88911724D01*
X81498740Y-89110400D01*
X82497550Y-88911724D01*
X83344303Y-88345943D01*
X83910084Y-87499191D01*
X83999370Y-87050320D01*
X84088656Y-87499190D01*
X84654437Y-88345943D01*
X85501189Y-88911724D01*
X86500000Y-89110400D01*
X87498810Y-88911724D01*
X88345563Y-88345943D01*
X88911344Y-87499191D01*
X89059870Y-86752501D01*
X89059870Y-85247500D01*
X88911344Y-84500810D01*
X88345563Y-83654057D01*
X87498811Y-83088276D01*
X86500000Y-82889600D01*
X86458050Y-82897944D01*
X81835000Y-78274895D01*
X81835000Y-72304725D01*
X82249726Y-71890000D01*
X86428265Y-71890000D01*
X86956227Y-71784982D01*
X87554937Y-71384937D01*
X87954982Y-70786227D01*
X88058566Y-70265475D01*
X89036824Y-69287217D01*
X89154553Y-69208553D01*
X89466190Y-68742155D01*
X89548000Y-68330870D01*
X89548000Y-68330866D01*
X89575622Y-68192001D01*
X89548000Y-68053135D01*
X89548000Y-64776869D01*
X89575623Y-64638000D01*
X89466190Y-64087846D01*
X89466190Y-64087845D01*
X89170351Y-63645091D01*
X89454937Y-63454937D01*
X89854982Y-62856227D01*
X89865000Y-62805861D01*
X89865000Y-89865000D01*
X14135000Y-89865000D01*
X14135000Y-14135000D01*
X89865001Y-14135000D01*
X89865000Y-59994139D01*
X89865000Y-59994139D01*
G37*
X89865000Y-59994139D02*
X89854982Y-59943773D01*
X89454937Y-59345063D01*
X88856227Y-58945018D01*
X88560000Y-58886095D01*
X88560000Y-57852226D01*
X88735177Y-57735177D01*
X89190477Y-57053772D01*
X89350357Y-56250000D01*
X89190477Y-55446228D01*
X88735177Y-54764823D01*
X88053772Y-54309523D01*
X87452889Y-54190000D01*
X86047111Y-54190000D01*
X85446228Y-54309523D01*
X84764823Y-54764823D01*
X84309523Y-55446228D01*
X84149643Y-56250000D01*
X84309523Y-57053772D01*
X84764823Y-57735177D01*
X84940000Y-57852227D01*
X84940001Y-59445960D01*
X82633334Y-57139293D01*
X82690477Y-57053772D01*
X82850357Y-56250000D01*
X82690477Y-55446228D01*
X82235177Y-54764823D01*
X81553772Y-54309523D01*
X80952889Y-54190000D01*
X79547111Y-54190000D01*
X78946228Y-54309523D01*
X78750955Y-54440000D01*
X71477727Y-54440000D01*
X69477915Y-52440188D01*
X68287727Y-51250000D01*
X84154541Y-51250000D01*
X84295018Y-51956227D01*
X84695063Y-52554937D01*
X85293773Y-52954982D01*
X85821735Y-53060000D01*
X87678265Y-53060000D01*
X88206227Y-52954982D01*
X88804937Y-52554937D01*
X89204982Y-51956227D01*
X89345459Y-51250000D01*
X89204982Y-50543773D01*
X88804937Y-49945063D01*
X88620000Y-49821492D01*
X88620000Y-47659248D01*
X88690477Y-47553771D01*
X88810000Y-46952888D01*
X88810000Y-45547111D01*
X88690477Y-44946228D01*
X88235177Y-44264823D01*
X87553771Y-43809523D01*
X86750000Y-43649643D01*
X85946228Y-43809523D01*
X85264823Y-44264823D01*
X84809523Y-44946229D01*
X84690000Y-45547112D01*
X84690000Y-46952889D01*
X84809523Y-47553772D01*
X85000000Y-47838841D01*
X85000001Y-49741310D01*
X84695063Y-49945063D01*
X84295018Y-50543773D01*
X84154541Y-51250000D01*
X68287727Y-51250000D01*
X66060000Y-49022275D01*
X66060000Y-34398265D01*
X66095459Y-34220000D01*
X65954982Y-33513773D01*
X65554937Y-32915063D01*
X65403808Y-32814082D01*
X62649725Y-30060000D01*
X68665960Y-30060000D01*
X76851175Y-38245216D01*
X76851178Y-38245218D01*
X78840001Y-40234042D01*
X78840000Y-44214591D01*
X78764823Y-44264823D01*
X78309523Y-44946229D01*
X78190000Y-45547112D01*
X78190000Y-46952889D01*
X78309523Y-47553772D01*
X78764824Y-48235177D01*
X79446229Y-48690477D01*
X80250000Y-48850357D01*
X81053772Y-48690477D01*
X81735177Y-48235177D01*
X82190477Y-47553771D01*
X82310000Y-46952888D01*
X82310000Y-45547111D01*
X82190477Y-44946228D01*
X81735177Y-44264823D01*
X81660000Y-44214591D01*
X81660000Y-41250000D01*
X84404541Y-41250000D01*
X84545018Y-41956227D01*
X84945063Y-42554937D01*
X85543773Y-42954982D01*
X86071735Y-43060000D01*
X86821735Y-43060000D01*
X87000000Y-43095459D01*
X87178265Y-43060000D01*
X87928265Y-43060000D01*
X88456227Y-42954982D01*
X89054937Y-42554937D01*
X89454982Y-41956227D01*
X89595459Y-41250000D01*
X89454982Y-40543773D01*
X89054937Y-39945063D01*
X88810000Y-39781401D01*
X88810000Y-36678263D01*
X88845459Y-36499999D01*
X88810000Y-36321735D01*
X88810000Y-35547111D01*
X88690477Y-34946228D01*
X88235177Y-34264823D01*
X87553771Y-33809523D01*
X86750000Y-33649643D01*
X85946228Y-33809523D01*
X85264823Y-34264823D01*
X84809523Y-34946229D01*
X84690000Y-35547112D01*
X84690000Y-36952889D01*
X84809523Y-37553772D01*
X85190001Y-38123196D01*
X85190000Y-39781401D01*
X84945063Y-39945063D01*
X84545018Y-40543773D01*
X84404541Y-41250000D01*
X81660000Y-41250000D01*
X81660000Y-39788869D01*
X81687623Y-39650000D01*
X81578190Y-39099846D01*
X81578190Y-39099845D01*
X81266553Y-38633447D01*
X81202838Y-38590874D01*
X81735177Y-38235177D01*
X82190477Y-37553771D01*
X82310000Y-36952888D01*
X82310000Y-35547111D01*
X82190477Y-34946228D01*
X81735177Y-34264823D01*
X81053771Y-33809523D01*
X80250000Y-33649643D01*
X79446228Y-33809523D01*
X78921765Y-34159958D01*
X76971807Y-32210000D01*
X78328265Y-32210000D01*
X78856227Y-32104982D01*
X79073208Y-31960000D01*
X84946358Y-31960000D01*
X85100000Y-31990561D01*
X85253642Y-31960000D01*
X85253646Y-31960000D01*
X85708682Y-31869488D01*
X86224697Y-31524697D01*
X86311732Y-31394440D01*
X86994440Y-30711732D01*
X87124697Y-30624697D01*
X87469488Y-30108682D01*
X87560000Y-29653646D01*
X87560000Y-29653642D01*
X87590561Y-29500001D01*
X87560000Y-29346360D01*
X87560000Y-28673208D01*
X87704982Y-28456227D01*
X87810000Y-27928265D01*
X87810000Y-26071735D01*
X87704982Y-25543773D01*
X87560000Y-25326792D01*
X87560000Y-22673208D01*
X87704982Y-22456227D01*
X87810000Y-21928265D01*
X87810000Y-20071735D01*
X87704982Y-19543773D01*
X87304937Y-18945063D01*
X86706226Y-18545018D01*
X86000000Y-18404541D01*
X85293773Y-18545018D01*
X84750000Y-18908355D01*
X84206226Y-18545018D01*
X83500000Y-18404541D01*
X82793773Y-18545018D01*
X82195063Y-18945063D01*
X82027481Y-19195868D01*
X81409760Y-18940000D01*
X80590240Y-18940000D01*
X79833104Y-19253616D01*
X79253616Y-19833104D01*
X78940000Y-20590240D01*
X78940000Y-21409760D01*
X79253616Y-22166896D01*
X79833104Y-22746384D01*
X80590240Y-23060000D01*
X81409760Y-23060000D01*
X81940000Y-22840367D01*
X81940001Y-25159633D01*
X81409760Y-24940000D01*
X80590240Y-24940000D01*
X79833104Y-25253616D01*
X79253616Y-25833104D01*
X78982259Y-26488218D01*
X77295218Y-24801178D01*
X77216552Y-24683446D01*
X76750154Y-24371809D01*
X76338869Y-24289999D01*
X76338868Y-24289999D01*
X76199999Y-24262376D01*
X76061130Y-24289999D01*
X55448041Y-24289999D01*
X53119220Y-21961179D01*
X53040554Y-21843447D01*
X52574156Y-21531810D01*
X52162871Y-21450000D01*
X52162870Y-21450000D01*
X52024001Y-21422377D01*
X51885132Y-21450000D01*
X44819509Y-21450000D01*
X44680640Y-21422377D01*
X44541771Y-21450000D01*
X44541770Y-21450000D01*
X44130485Y-21531810D01*
X43664087Y-21843447D01*
X43585423Y-21961176D01*
X40141817Y-25404783D01*
X40024086Y-25483448D01*
X39945422Y-25601177D01*
X39856599Y-25690000D01*
X39112375Y-25690000D01*
X38584413Y-25795018D01*
X37985703Y-26195063D01*
X37585658Y-26793773D01*
X37445181Y-27500000D01*
X37451109Y-27529804D01*
X35590915Y-29390000D01*
X27949726Y-29390000D01*
X26810000Y-28250275D01*
X26810000Y-24678264D01*
X26845459Y-24499999D01*
X26704982Y-23793773D01*
X26304937Y-23195063D01*
X26153807Y-23094081D01*
X24810000Y-21750275D01*
X24810000Y-21040000D01*
X31774541Y-21040000D01*
X31915018Y-21746227D01*
X32315063Y-22344937D01*
X32913773Y-22744982D01*
X33441735Y-22850000D01*
X36298265Y-22850000D01*
X36826227Y-22744982D01*
X37424937Y-22344937D01*
X37824982Y-21746227D01*
X37965459Y-21040000D01*
X37824982Y-20333773D01*
X37424937Y-19735063D01*
X36826227Y-19335018D01*
X36298265Y-19230000D01*
X33441735Y-19230000D01*
X32913773Y-19335018D01*
X32315063Y-19735063D01*
X31915018Y-20333773D01*
X31774541Y-21040000D01*
X24810000Y-21040000D01*
X24810000Y-17571735D01*
X24704982Y-17043773D01*
X24542099Y-16800000D01*
X53204541Y-16800000D01*
X53345018Y-17506227D01*
X53745063Y-18104937D01*
X53990001Y-18268599D01*
X53990001Y-18931731D01*
X53954541Y-19110000D01*
X54095018Y-19816226D01*
X54095019Y-19816227D01*
X54495064Y-20414937D01*
X54646193Y-20515918D01*
X54723425Y-20593150D01*
X54634541Y-21040000D01*
X54775018Y-21746227D01*
X55175063Y-22344937D01*
X55773773Y-22744982D01*
X56301735Y-22850000D01*
X57551734Y-22850000D01*
X57729999Y-22885459D01*
X57908264Y-22850000D01*
X59158265Y-22850000D01*
X59686227Y-22744982D01*
X60284937Y-22344937D01*
X60684982Y-21746227D01*
X60825459Y-21040000D01*
X60684982Y-20333773D01*
X60284937Y-19735063D01*
X59686227Y-19335018D01*
X59158265Y-19230000D01*
X58479726Y-19230000D01*
X57610000Y-18360274D01*
X57610000Y-18268599D01*
X57854937Y-18104937D01*
X58254982Y-17506227D01*
X58340000Y-17078812D01*
X58425018Y-17506227D01*
X58825063Y-18104937D01*
X59423773Y-18504982D01*
X59951735Y-18610000D01*
X61050275Y-18610000D01*
X61972999Y-19532725D01*
X61880052Y-20000000D01*
X62117544Y-21193952D01*
X62793864Y-22206136D01*
X63806048Y-22882456D01*
X64698621Y-23060000D01*
X65301379Y-23060000D01*
X66193952Y-22882456D01*
X67206136Y-22206136D01*
X67882456Y-21193952D01*
X68119948Y-20000000D01*
X67882456Y-18806048D01*
X67206136Y-17793864D01*
X66193952Y-17117544D01*
X65301379Y-16940000D01*
X64698621Y-16940000D01*
X64532725Y-16972999D01*
X63205920Y-15646195D01*
X63104937Y-15495063D01*
X62506227Y-15095018D01*
X61978265Y-14990000D01*
X61800000Y-14954541D01*
X61621735Y-14990000D01*
X59951735Y-14990000D01*
X59423773Y-15095018D01*
X58825063Y-15495063D01*
X58425018Y-16093773D01*
X58340000Y-16521188D01*
X58254982Y-16093773D01*
X57854937Y-15495063D01*
X57256227Y-15095018D01*
X56728265Y-14990000D01*
X55978265Y-14990000D01*
X55800000Y-14954541D01*
X55621735Y-14990000D01*
X54871735Y-14990000D01*
X54343773Y-15095018D01*
X53745063Y-15495063D01*
X53345018Y-16093773D01*
X53204541Y-16800000D01*
X24542099Y-16800000D01*
X24304937Y-16445063D01*
X23706227Y-16045018D01*
X23000000Y-15904541D01*
X22293774Y-16045018D01*
X21730000Y-16421719D01*
X21166227Y-16045018D01*
X20460000Y-15904541D01*
X19753774Y-16045018D01*
X19190000Y-16421719D01*
X18626227Y-16045018D01*
X17920000Y-15904541D01*
X17213774Y-16045018D01*
X16615064Y-16445063D01*
X16215019Y-17043773D01*
X16110001Y-17571735D01*
X16110000Y-19321734D01*
X16110000Y-19321736D01*
X16110001Y-28766553D01*
X16110000Y-31428264D01*
X16110001Y-31428267D01*
X16110001Y-37821731D01*
X16110000Y-37821736D01*
X16110000Y-42428264D01*
X16110001Y-42428267D01*
X16110001Y-44821731D01*
X16074541Y-45000000D01*
X16110000Y-45178265D01*
X16110000Y-45821735D01*
X16074541Y-46000000D01*
X16110000Y-46178265D01*
X16110001Y-47821731D01*
X16074541Y-48000000D01*
X16110000Y-48178265D01*
X16110001Y-54821735D01*
X16110001Y-61821733D01*
X16110000Y-61821736D01*
X16110000Y-77178264D01*
X16110001Y-77178267D01*
X16110001Y-82571735D01*
X16110000Y-85428264D01*
X16215018Y-85956226D01*
X16615063Y-86554937D01*
X17213773Y-86954982D01*
X17920000Y-87095459D01*
X18626226Y-86954982D01*
X19190000Y-86578281D01*
X19753773Y-86954982D01*
X20460000Y-87095459D01*
X21166226Y-86954982D01*
X21730000Y-86578281D01*
X22293773Y-86954982D01*
X23000000Y-87095459D01*
X23706226Y-86954982D01*
X24304937Y-86554937D01*
X24704982Y-85956227D01*
X24810000Y-85428265D01*
X24810000Y-55910000D01*
X26928265Y-55910000D01*
X27129359Y-55870000D01*
X31930903Y-55870000D01*
X31915018Y-55893773D01*
X31774541Y-56600000D01*
X31915018Y-57306227D01*
X32315063Y-57904937D01*
X32913773Y-58304982D01*
X33060001Y-58334068D01*
X33060001Y-58529007D01*
X32819263Y-58689863D01*
X32419218Y-59288573D01*
X32278741Y-59994800D01*
X32419218Y-60701027D01*
X32819263Y-61299737D01*
X33417973Y-61699782D01*
X33945935Y-61804800D01*
X34695935Y-61804800D01*
X34874200Y-61840259D01*
X35052465Y-61804800D01*
X35802465Y-61804800D01*
X36330427Y-61699782D01*
X36929137Y-61299737D01*
X37329182Y-60701027D01*
X37469659Y-59994800D01*
X37329182Y-59288573D01*
X36929137Y-58689863D01*
X36680000Y-58523395D01*
X36680000Y-58334068D01*
X36826227Y-58304982D01*
X37424937Y-57904937D01*
X37470000Y-57837495D01*
X37470001Y-69336741D01*
X37066411Y-69606411D01*
X36663714Y-70209091D01*
X36522305Y-70920000D01*
X36663714Y-71630909D01*
X36926401Y-72024048D01*
X36917999Y-72022377D01*
X36779130Y-72050000D01*
X36367845Y-72131810D01*
X35901447Y-72443447D01*
X35822784Y-72561175D01*
X35101176Y-73282784D01*
X34983447Y-73361448D01*
X34671810Y-73827846D01*
X34671810Y-73827847D01*
X34562377Y-74378000D01*
X34590000Y-74516869D01*
X34590001Y-82861126D01*
X34562377Y-83000000D01*
X34671810Y-83550153D01*
X34671811Y-83550154D01*
X34671811Y-83550155D01*
X34983448Y-84016553D01*
X35101177Y-84095217D01*
X36904783Y-85898824D01*
X36983447Y-86016553D01*
X37403520Y-86297237D01*
X37045018Y-86833773D01*
X36904541Y-87540000D01*
X37045018Y-88246227D01*
X37445063Y-88844937D01*
X38043773Y-89244982D01*
X38571735Y-89350000D01*
X56321735Y-89350000D01*
X56500000Y-89385459D01*
X56678265Y-89350000D01*
X57206227Y-89244982D01*
X57804937Y-88844937D01*
X57905920Y-88693805D01*
X63749726Y-82850000D01*
X66928265Y-82850000D01*
X67456227Y-82744982D01*
X68054937Y-82344937D01*
X68454982Y-81746227D01*
X68595459Y-81040000D01*
X68454982Y-80333773D01*
X68054937Y-79735063D01*
X67456227Y-79335018D01*
X66928265Y-79230000D01*
X63178264Y-79230000D01*
X62999999Y-79194541D01*
X62716618Y-79250909D01*
X62293773Y-79335018D01*
X61695063Y-79735063D01*
X61594082Y-79886192D01*
X58324305Y-83155970D01*
X58328190Y-83150155D01*
X58410000Y-82738870D01*
X58410000Y-82738869D01*
X58437623Y-82600000D01*
X58410000Y-82461131D01*
X58410000Y-79338869D01*
X58437623Y-79200000D01*
X58406862Y-79045353D01*
X58328190Y-78649845D01*
X58016553Y-78183447D01*
X57898821Y-78104781D01*
X57564040Y-77770000D01*
X66928265Y-77770000D01*
X67456227Y-77664982D01*
X68054937Y-77264937D01*
X68454982Y-76666227D01*
X68595459Y-75960000D01*
X68454982Y-75253773D01*
X68054937Y-74655063D01*
X67456227Y-74255018D01*
X66928265Y-74150000D01*
X56340445Y-74150000D01*
X56477695Y-73460000D01*
X56336286Y-72749091D01*
X55962714Y-72190000D01*
X56336286Y-71630909D01*
X56477695Y-70920000D01*
X56336286Y-70209091D01*
X55933589Y-69606411D01*
X55530000Y-69336742D01*
X55530000Y-36280000D01*
X55634541Y-36280000D01*
X55775018Y-36986227D01*
X56151719Y-37550000D01*
X55775018Y-38113773D01*
X55634541Y-38820000D01*
X55775018Y-39526227D01*
X56175063Y-40124937D01*
X56773773Y-40524982D01*
X57301735Y-40630000D01*
X58158265Y-40630000D01*
X58686227Y-40524982D01*
X59284937Y-40124937D01*
X59684982Y-39526227D01*
X59825459Y-38820000D01*
X59684982Y-38113773D01*
X59308281Y-37550000D01*
X59684982Y-36986227D01*
X59825459Y-36280000D01*
X59684982Y-35573773D01*
X59284937Y-34975063D01*
X58686227Y-34575018D01*
X58158265Y-34470000D01*
X57301735Y-34470000D01*
X56773773Y-34575018D01*
X56175063Y-34975063D01*
X55775018Y-35573773D01*
X55634541Y-36280000D01*
X55530000Y-36280000D01*
X55530000Y-34158865D01*
X55557622Y-34019999D01*
X55530000Y-33881131D01*
X55530000Y-33881130D01*
X55448190Y-33469845D01*
X55136552Y-33003447D01*
X55018826Y-32924785D01*
X49660000Y-27565960D01*
X49660000Y-27090240D01*
X49543921Y-26810000D01*
X50013960Y-26810000D01*
X52752783Y-29548824D01*
X52831447Y-29666553D01*
X53297845Y-29978190D01*
X53709130Y-30060000D01*
X53709134Y-30060000D01*
X53847999Y-30087622D01*
X53986865Y-30060000D01*
X55064856Y-30060000D01*
X54775018Y-30493773D01*
X54634541Y-31200000D01*
X54775018Y-31906227D01*
X55175063Y-32504937D01*
X55773773Y-32904982D01*
X56301735Y-33010000D01*
X60480275Y-33010000D01*
X62440000Y-34969726D01*
X62440001Y-49593731D01*
X62404541Y-49772000D01*
X62545018Y-50478226D01*
X62545019Y-50478227D01*
X62945064Y-51076937D01*
X63096193Y-51177918D01*
X66918188Y-54999915D01*
X66918190Y-54999917D01*
X69322084Y-57403810D01*
X69423063Y-57554937D01*
X70021773Y-57954982D01*
X70549735Y-58060000D01*
X70549736Y-58060000D01*
X70727999Y-58095459D01*
X70906263Y-58060000D01*
X78750955Y-58060000D01*
X78946228Y-58190477D01*
X79547111Y-58310000D01*
X79815960Y-58310000D01*
X81095960Y-59590000D01*
X78168264Y-59590000D01*
X77989999Y-59554541D01*
X77811735Y-59590000D01*
X77061735Y-59590000D01*
X76961188Y-59610000D01*
X65071735Y-59610000D01*
X64543773Y-59715018D01*
X63945063Y-60115063D01*
X63545018Y-60713773D01*
X63404541Y-61420000D01*
X63545018Y-62126227D01*
X63560903Y-62150000D01*
X63055926Y-62150000D01*
X59540000Y-58634075D01*
X59540000Y-57523208D01*
X59684982Y-57306227D01*
X59825459Y-56600000D01*
X59684982Y-55893773D01*
X59308281Y-55330000D01*
X59684982Y-54766227D01*
X59825459Y-54060000D01*
X59684982Y-53353773D01*
X59308281Y-52790000D01*
X59684982Y-52226227D01*
X59825459Y-51520000D01*
X59684982Y-50813773D01*
X59308281Y-50250000D01*
X59684982Y-49686227D01*
X59825459Y-48980000D01*
X59684982Y-48273773D01*
X59308281Y-47710000D01*
X59684982Y-47146227D01*
X59825459Y-46440000D01*
X59684982Y-45733773D01*
X59308281Y-45170000D01*
X59684982Y-44606227D01*
X59825459Y-43900000D01*
X59684982Y-43193773D01*
X59284937Y-42595063D01*
X58686227Y-42195018D01*
X58158265Y-42090000D01*
X57301735Y-42090000D01*
X56773773Y-42195018D01*
X56175063Y-42595063D01*
X55775018Y-43193773D01*
X55634541Y-43900000D01*
X55775018Y-44606227D01*
X56151719Y-45170000D01*
X55775018Y-45733773D01*
X55634541Y-46440000D01*
X55775018Y-47146227D01*
X56151719Y-47710000D01*
X55775018Y-48273773D01*
X55634541Y-48980000D01*
X55775018Y-49686227D01*
X56151719Y-50250000D01*
X55775018Y-50813773D01*
X55634541Y-51520000D01*
X55775018Y-52226227D01*
X56151719Y-52790000D01*
X55775018Y-53353773D01*
X55634541Y-54060000D01*
X55775018Y-54766227D01*
X56151719Y-55330000D01*
X55775018Y-55893773D01*
X55634541Y-56600000D01*
X55775018Y-57306227D01*
X55920000Y-57523209D01*
X55920001Y-59205531D01*
X55884541Y-59383800D01*
X56025018Y-60090026D01*
X56068126Y-60154541D01*
X56425064Y-60688737D01*
X56576193Y-60789718D01*
X60900282Y-65113808D01*
X61001263Y-65264937D01*
X61576990Y-65649625D01*
X61599973Y-65664982D01*
X62306199Y-65805459D01*
X62484464Y-65770000D01*
X63560903Y-65770000D01*
X63545018Y-65793773D01*
X63404541Y-66500000D01*
X63545018Y-67206227D01*
X63945063Y-67804937D01*
X64543773Y-68204982D01*
X65071735Y-68310000D01*
X71870275Y-68310000D01*
X75590000Y-72029726D01*
X75590001Y-81222611D01*
X75554541Y-81400880D01*
X75695018Y-82107106D01*
X75744868Y-82181711D01*
X76095064Y-82705817D01*
X76246193Y-82806798D01*
X78257683Y-84818289D01*
X78938870Y-85499476D01*
X78938870Y-86752500D01*
X79087396Y-87499190D01*
X79653177Y-88345943D01*
X80499929Y-88911724D01*
X81498740Y-89110400D01*
X82497550Y-88911724D01*
X83344303Y-88345943D01*
X83910084Y-87499191D01*
X83999370Y-87050320D01*
X84088656Y-87499190D01*
X84654437Y-88345943D01*
X85501189Y-88911724D01*
X86500000Y-89110400D01*
X87498810Y-88911724D01*
X88345563Y-88345943D01*
X88911344Y-87499191D01*
X89059870Y-86752501D01*
X89059870Y-85247500D01*
X88911344Y-84500810D01*
X88345563Y-83654057D01*
X87498811Y-83088276D01*
X86500000Y-82889600D01*
X86458050Y-82897944D01*
X81835000Y-78274895D01*
X81835000Y-72304725D01*
X82249726Y-71890000D01*
X86428265Y-71890000D01*
X86956227Y-71784982D01*
X87554937Y-71384937D01*
X87954982Y-70786227D01*
X88058566Y-70265475D01*
X89036824Y-69287217D01*
X89154553Y-69208553D01*
X89466190Y-68742155D01*
X89548000Y-68330870D01*
X89548000Y-68330866D01*
X89575622Y-68192001D01*
X89548000Y-68053135D01*
X89548000Y-64776869D01*
X89575623Y-64638000D01*
X89466190Y-64087846D01*
X89466190Y-64087845D01*
X89170351Y-63645091D01*
X89454937Y-63454937D01*
X89854982Y-62856227D01*
X89865000Y-62805861D01*
X89865000Y-89865000D01*
X14135000Y-89865000D01*
X14135000Y-14135000D01*
X89865001Y-14135000D01*
X89865000Y-59994139D01*
G04 #@! TD*
M02*
