M48
;DRILL file {KiCad 5.0.0} date Sun Oct 14 14:04:27 2018
;FORMAT={-:-/ absolute / inch / decimal}
FMAT,2
INCH,TZ
T1C0.0315
T2C0.0354
T3C0.0394
T4C0.0433
T5C0.0551
T6C0.0591
%
G90
G05
M72
T1
X2.5984Y-2.5181
X2.8343Y-2.8181
X1.5307Y-2.7921
X1.5307Y-2.8921
X1.5307Y-3.0921
X2.1307Y-2.7921
X2.1307Y-2.8921
X2.1307Y-2.9921
X2.1307Y-3.0921
X2.1307Y-3.1921
X2.5984Y-2.9906
X2.5984Y-3.0906
X2.5984Y-3.1906
X2.5984Y-2.4181
X2.5984Y-2.6181
T2
X1.5551Y-3.3465
X1.5551Y-3.4465
X1.9094Y-3.3465
X1.9094Y-3.4465
X1.7323Y-3.3465
X1.7323Y-3.4465
X2.0866Y-3.3465
X2.0866Y-3.4465
T3
X0.6055Y-1.1811
X0.7055Y-1.1811
X0.8055Y-1.1811
X0.9055Y-1.1811
X1.5748Y-1.3681
X1.8724Y-1.3681
X3.189Y-0.8268
X3.189Y-1.063
X3.2874Y-0.8268
X3.2874Y-1.063
X3.3858Y-0.8268
X3.3858Y-1.063
X2.8343Y-2.4181
X3.0154Y-2.0177
X3.4154Y-2.0177
X1.5764Y-1.811
X1.874Y-1.811
X0.6055Y-3.3071
X0.7055Y-3.3071
X0.8055Y-3.3071
X0.9055Y-3.3071
X2.1969Y-0.6614
X2.3969Y-0.6614
X3.3465Y-2.5591
X3.3465Y-2.6591
X3.3465Y-2.7591
X3.3465Y-2.8591
X1.5748Y-1.5256
X1.8724Y-1.5256
X3.0705Y-2.4173
X3.4705Y-2.4173
X1.5748Y-1.939
X1.8724Y-1.939
X2.6472Y-1.1969
X3.0472Y-1.1969
X1.5764Y-1.0827
X1.874Y-1.0827
X0.6055Y-2.874
X0.7055Y-2.874
X0.8055Y-2.874
X0.9055Y-2.874
X1.373Y-2.362
X1.6706Y-2.362
X1.5748Y-1.2303
X1.8724Y-1.2303
X0.6055Y-1.6142
X0.7055Y-1.6142
X0.8055Y-1.6142
X0.9055Y-1.6142
X0.6055Y-2.4409
X0.7055Y-2.4409
X0.8055Y-2.4409
X0.9055Y-2.4409
X1.1732Y-1.7319
X1.1732Y-2.0295
X1.3728Y-0.8283
X1.3728Y-0.9283
X1.3728Y-1.2283
X1.3728Y-1.3283
X1.3728Y-1.4283
X1.3728Y-1.5283
X1.3728Y-1.7283
X1.3728Y-1.8283
X1.3728Y-1.9283
X1.3728Y-2.0283
X1.3728Y-2.1283
X1.3728Y-2.2283
X2.2728Y-0.8283
X2.2728Y-0.9283
X2.2728Y-1.2283
X2.2728Y-1.3283
X2.2728Y-1.4283
X2.2728Y-1.5283
X2.2728Y-1.7283
X2.2728Y-1.8283
X2.2728Y-1.9283
X2.2728Y-2.0283
X2.2728Y-2.1283
X2.2728Y-2.2283
X1.0236Y-1.8323
X1.0236Y-2.1299
X0.6055Y-0.748
X0.7055Y-0.748
X0.8055Y-0.748
X0.9055Y-0.748
X3.0252Y-1.624
X3.4252Y-1.624
T4
X3.1594Y-1.4272
X3.4154Y-1.4272
X3.1594Y-2.2146
X3.4154Y-2.2146
X3.1594Y-1.8209
X3.4154Y-1.8209
T5
X3.0117Y-3.3858
X3.4055Y-3.3858
X2.5591Y-0.7874
X2.7559Y-0.7874
T6
X3.2086Y-3.3858
T0
M30
