G04 #@! TF.GenerationSoftware,KiCad,Pcbnew,5.0.0*
G04 #@! TF.CreationDate,2018-10-14T14:04:32-03:00*
G04 #@! TF.ProjectId,ShieldIoT-IFSP,536869656C64496F542D494653502E6B,3.4*
G04 #@! TF.SameCoordinates,Original*
G04 #@! TF.FileFunction,Soldermask,Bot*
G04 #@! TF.FilePolarity,Negative*
%FSLAX46Y46*%
G04 Gerber Fmt 4.6, Leading zero omitted, Abs format (unit mm)*
G04 Created by KiCad (PCBNEW 5.0.0) date Sun Oct 14 14:04:32 2018*
%MOMM*%
%LPD*%
G01*
G04 APERTURE LIST*
%ADD10O,3.400000X2.400000*%
%ADD11O,4.400000X1.900000*%
%ADD12O,2.400000X1.900000*%
%ADD13C,2.400000*%
%ADD14O,1.900000X3.400000*%
%ADD15O,4.400000X4.400000*%
%ADD16O,2.924000X1.924000*%
%ADD17O,3.400000X1.900000*%
%ADD18O,3.399740X4.400500*%
%ADD19R,2.200000X2.200000*%
%ADD20O,1.900000X4.400000*%
%ADD21O,2.400000X3.400000*%
G04 APERTURE END LIST*
D10*
G04 #@! TO.C,SW4*
X80250000Y-56250000D03*
X86750000Y-56250000D03*
G04 #@! TD*
D11*
G04 #@! TO.C,IC1*
X34870000Y-21040000D03*
X34870000Y-23580000D03*
X34870000Y-56600000D03*
X34870000Y-54060000D03*
X34870000Y-51520000D03*
X34870000Y-48980000D03*
X34870000Y-46440000D03*
X34870000Y-43900000D03*
X34870000Y-38820000D03*
X34870000Y-36280000D03*
X34870000Y-33740000D03*
X34870000Y-31200000D03*
X57730000Y-21040000D03*
X57730000Y-23580000D03*
X57730000Y-31200000D03*
X57730000Y-33740000D03*
D12*
X57730000Y-36280000D03*
X57730000Y-38820000D03*
X57730000Y-43900000D03*
X57730000Y-46440000D03*
X57730000Y-48980000D03*
X57730000Y-51520000D03*
X57730000Y-54060000D03*
X57730000Y-56600000D03*
G04 #@! TD*
D13*
G04 #@! TO.C,SW3*
X81000000Y-27000000D03*
D14*
X83500000Y-27000000D03*
X86000000Y-27000000D03*
X86000000Y-21000000D03*
X83500000Y-21000000D03*
D13*
X81000000Y-21000000D03*
G04 #@! TD*
D15*
G04 #@! TO.C,J1*
X65000000Y-20000000D03*
X70000000Y-20000000D03*
G04 #@! TD*
D16*
G04 #@! TO.C,U1*
X54120000Y-70920000D03*
X54120000Y-73460000D03*
X54120000Y-76000000D03*
X54120000Y-78540000D03*
X54120000Y-81080000D03*
X38880000Y-78540000D03*
X38880000Y-73460000D03*
X38880000Y-70920000D03*
G04 #@! TD*
D17*
G04 #@! TO.C,J5*
X85000000Y-65000000D03*
X85000000Y-67540000D03*
D11*
X85000000Y-70080000D03*
X85000000Y-72620000D03*
G04 #@! TD*
D17*
G04 #@! TO.C,JP2*
X66000000Y-75960000D03*
X66000000Y-78500000D03*
X66000000Y-81040000D03*
G04 #@! TD*
G04 #@! TO.C,JP1*
X66000000Y-61420000D03*
X66000000Y-63960000D03*
X66000000Y-66500000D03*
G04 #@! TD*
D18*
G04 #@! TO.C,RV1*
X81498740Y-86000000D03*
X76497480Y-86000000D03*
X86500000Y-86000000D03*
G04 #@! TD*
D17*
G04 #@! TO.C,R11*
X40040640Y-27500000D03*
D13*
X47600000Y-27500000D03*
G04 #@! TD*
D17*
G04 #@! TO.C,R10*
X40000000Y-31250000D03*
D13*
X47559360Y-31250000D03*
G04 #@! TD*
D17*
G04 #@! TO.C,R5*
X40000000Y-34750000D03*
D13*
X47559360Y-34750000D03*
G04 #@! TD*
D17*
G04 #@! TO.C,R6*
X40000000Y-38750000D03*
D13*
X47559360Y-38750000D03*
G04 #@! TD*
D17*
G04 #@! TO.C,R9*
X40040640Y-46000000D03*
D13*
X47600000Y-46000000D03*
G04 #@! TD*
D17*
G04 #@! TO.C,R8*
X34874200Y-59994800D03*
X42433560Y-59994800D03*
G04 #@! TD*
G04 #@! TO.C,R7*
X40000000Y-49250000D03*
D13*
X47559360Y-49250000D03*
G04 #@! TD*
D17*
G04 #@! TO.C,R2*
X29800000Y-43990640D03*
X29800000Y-51550000D03*
G04 #@! TD*
G04 #@! TO.C,R3*
X26000000Y-46540640D03*
X26000000Y-54100000D03*
G04 #@! TD*
D19*
G04 #@! TO.C,D4*
X53000000Y-85000000D03*
D17*
X53000000Y-87540000D03*
G04 #@! TD*
D19*
G04 #@! TO.C,D3*
X48500000Y-85000000D03*
D17*
X48500000Y-87540000D03*
G04 #@! TD*
D19*
G04 #@! TO.C,D2*
X44000000Y-85000000D03*
D17*
X44000000Y-87540000D03*
G04 #@! TD*
D19*
G04 #@! TO.C,D1*
X39500000Y-85000000D03*
D17*
X39500000Y-87540000D03*
G04 #@! TD*
D20*
G04 #@! TO.C,J3*
X23000000Y-84000000D03*
X20460000Y-84000000D03*
X17920000Y-84000000D03*
X15380000Y-84000000D03*
G04 #@! TD*
G04 #@! TO.C,J2*
X23000000Y-73000000D03*
X20460000Y-73000000D03*
X17920000Y-73000000D03*
X15380000Y-73000000D03*
G04 #@! TD*
G04 #@! TO.C,J4*
X23000000Y-62000000D03*
X20460000Y-62000000D03*
X17920000Y-62000000D03*
X15380000Y-62000000D03*
G04 #@! TD*
G04 #@! TO.C,J8*
X23000000Y-41000000D03*
X20460000Y-41000000D03*
X17920000Y-41000000D03*
X15380000Y-41000000D03*
G04 #@! TD*
G04 #@! TO.C,J7*
X23000000Y-30000000D03*
X20460000Y-30000000D03*
X17920000Y-30000000D03*
X15380000Y-30000000D03*
G04 #@! TD*
G04 #@! TO.C,J6*
X23000000Y-19000000D03*
X20460000Y-19000000D03*
X17920000Y-19000000D03*
X15380000Y-19000000D03*
G04 #@! TD*
D17*
G04 #@! TO.C,D5*
X60880000Y-16800000D03*
X55800000Y-16800000D03*
G04 #@! TD*
G04 #@! TO.C,R4*
X67240000Y-30400000D03*
X77400000Y-30400000D03*
G04 #@! TD*
G04 #@! TO.C,R12*
X76590000Y-51250000D03*
X86750000Y-51250000D03*
G04 #@! TD*
G04 #@! TO.C,R13*
X87000000Y-41250000D03*
X76840000Y-41250000D03*
G04 #@! TD*
D21*
G04 #@! TO.C,SW2*
X80250000Y-36250000D03*
X86750000Y-36250000D03*
G04 #@! TD*
G04 #@! TO.C,SW1*
X80250000Y-46250000D03*
X86750000Y-46250000D03*
G04 #@! TD*
D17*
G04 #@! TO.C,R14*
X71990000Y-71580000D03*
X71990000Y-61420000D03*
G04 #@! TD*
D14*
G04 #@! TO.C,R1*
X88150000Y-61400000D03*
D17*
X77990000Y-61400000D03*
G04 #@! TD*
M02*
